<?xml version="1.0" encoding="utf-8"?>
<!-- Generator: Adobe Illustrator 27.5.0, SVG Export Plug-In . SVG Version: 6.00 Build 0)  -->
<svg version="1.1" xmlns="http://www.w3.org/2000/svg" xmlns:xlink="http://www.w3.org/1999/xlink" x="0px" y="0px"
	 viewBox="0 0 750 500" style="enable-background:new 0 0 750 500;" xml:space="preserve">
<g id="BACKGROUND">
	<rect style="fill:#F2E5DC;" width="750" height="500"/>
</g>
<g id="OBJECTS">
	<g>
		<g>
			
				<rect x="287.487" y="381.333" style="fill:none;stroke:#31100B;stroke-width:0.5;stroke-linecap:round;stroke-linejoin:round;stroke-miterlimit:10;" width="136.667" height="88.409"/>
			
				<line style="fill:none;stroke:#31100B;stroke-width:0.5;stroke-linecap:round;stroke-linejoin:round;stroke-miterlimit:10;" x1="364.154" y1="381.333" x2="364.154" y2="469.742"/>
			
				<rect x="294.82" y="445" style="fill:none;stroke:#31100B;stroke-width:0.5;stroke-linecap:round;stroke-linejoin:round;stroke-miterlimit:10;" width="20.667" height="14.428"/>
			
				<rect x="388.487" y="381.333" style="fill:none;stroke:#31100B;stroke-width:0.5;stroke-linecap:round;stroke-linejoin:round;stroke-miterlimit:10;" width="14.667" height="28"/>
		</g>
		<g>
			
				<rect x="431.987" y="416.333" style="fill:none;stroke:#31100B;stroke-width:0.5;stroke-linecap:round;stroke-linejoin:round;stroke-miterlimit:10;" width="118.667" height="53.409"/>
			
				<line style="fill:none;stroke:#31100B;stroke-width:0.5;stroke-linecap:round;stroke-linejoin:round;stroke-miterlimit:10;" x1="481.654" y1="416.333" x2="481.654" y2="469.742"/>
			
				<rect x="447.987" y="416.333" style="fill:none;stroke:#31100B;stroke-width:0.5;stroke-linecap:round;stroke-linejoin:round;stroke-miterlimit:10;" width="14.667" height="19"/>
			
				<rect x="526.154" y="453.509" style="fill:none;stroke:#31100B;stroke-width:0.5;stroke-linecap:round;stroke-linejoin:round;stroke-miterlimit:10;" width="17" height="8.991"/>
		</g>
		<g>
			
				<rect x="441.987" y="362.924" style="fill:none;stroke:#31100B;stroke-width:0.5;stroke-linecap:round;stroke-linejoin:round;stroke-miterlimit:10;" width="118.667" height="53.409"/>
			
				<line style="fill:none;stroke:#31100B;stroke-width:0.5;stroke-linecap:round;stroke-linejoin:round;stroke-miterlimit:10;" x1="491.654" y1="362.924" x2="491.654" y2="416.333"/>
			
				<rect x="457.987" y="362.924" style="fill:none;stroke:#31100B;stroke-width:0.5;stroke-linecap:round;stroke-linejoin:round;stroke-miterlimit:10;" width="14.667" height="19"/>
			
				<rect x="536.154" y="400.1" style="fill:none;stroke:#31100B;stroke-width:0.5;stroke-linecap:round;stroke-linejoin:round;stroke-miterlimit:10;" width="17" height="8.991"/>
		</g>
		<g>
			
				<rect x="277.487" y="306.924" style="fill:none;stroke:#31100B;stroke-width:0.5;stroke-linecap:round;stroke-linejoin:round;stroke-miterlimit:10;" width="136.667" height="74.409"/>
			
				<line style="fill:none;stroke:#31100B;stroke-width:0.5;stroke-linecap:round;stroke-linejoin:round;stroke-miterlimit:10;" x1="354.154" y1="306.924" x2="354.154" y2="381.333"/>
			
				<rect x="284.82" y="356.591" style="fill:none;stroke:#31100B;stroke-width:0.5;stroke-linecap:round;stroke-linejoin:round;stroke-miterlimit:10;" width="20.667" height="14.428"/>
			
				<rect x="378.487" y="306.924" style="fill:none;stroke:#31100B;stroke-width:0.5;stroke-linecap:round;stroke-linejoin:round;stroke-miterlimit:10;" width="14.667" height="28"/>
		</g>
		
			<polyline style="fill:none;stroke:#31100B;stroke-width:0.5;stroke-linecap:round;stroke-linejoin:round;stroke-miterlimit:10;" points="
			414.154,329.5 465.32,329.5 465.32,362.924 		"/>
		<g>
			<path style="fill:none;stroke:#31100B;stroke-width:0.5;stroke-linecap:round;stroke-linejoin:round;stroke-miterlimit:10;" d="
				M511.669,250.948c-7.2-14.159-16.316-25.722-16.316-25.722s3.705,31.922,6.751,51.444"/>
			<path style="fill:none;stroke:#31100B;stroke-width:0.5;stroke-linecap:round;stroke-linejoin:round;stroke-miterlimit:10;" d="
				M519.263,362.924h-9.704c-17.226,0-31.19-13.964-31.19-31.19V315.07h72.084v16.665
				C550.453,348.96,536.489,362.924,519.263,362.924z"/>
			<path style="fill:none;stroke:#31100B;stroke-width:0.5;stroke-linecap:round;stroke-linejoin:round;stroke-miterlimit:10;" d="
				M517.184,315.07c0,0,7.971-51.988,22.526-74.67c0,0,7.971,33.746-15.249,74.67H517.184z"/>
			<path style="fill:none;stroke:#31100B;stroke-width:0.5;stroke-linecap:round;stroke-linejoin:round;stroke-miterlimit:10;" d="
				M516.715,315.07c0,0-10.743-30.814-5.545-61.311c5.198-30.497,13.516-40.894,13.516-40.894s3.468,34.002,3.317,55.012"/>
			<path style="fill:none;stroke:#31100B;stroke-width:0.5;stroke-linecap:round;stroke-linejoin:round;stroke-miterlimit:10;" d="
				M510.45,315.07c0,0,0.727-41.442-24.571-57.268l16.635,57.268H510.45z"/>
			<path style="fill:none;stroke:#31100B;stroke-width:0.5;stroke-linecap:round;stroke-linejoin:round;stroke-miterlimit:10;" d="
				M529.107,315.07c0,0,5.52-18.684,17.996-27.233c0,0-1.155,17.73-13.4,27.233H529.107z"/>
		</g>
	</g>
	
		<line style="fill:none;stroke:#31100B;stroke-width:0.5;stroke-linecap:round;stroke-linejoin:round;stroke-miterlimit:10;" x1="80" y1="470.125" x2="672.667" y2="470.125"/>
	<g>
		<g>
			<path style="fill:#BB583B;" d="M446.375,445.625c0,0,0.375,8.75-0.625,11.875s-5.5,19.375-5.5,19.375s-1.375,5.375,2.5,5.625
				h27.125c0,0,2.75-2.25,1-6.75S463.5,457.5,463.5,457.5l-1.5-12.875L446.375,445.625z"/>
			<path style="fill:#DBA14F;" d="M466.357,464.509c-9.511-9.608-15.205-4.388-17.982-0.946c-1.918,2.376-3.831,2.165-4.895,1.762
				c-1.539,5.446-3.23,11.551-3.23,11.551s-1.375,5.375,2.5,5.625h27.125c0,0,2.75-2.25,1-6.75
				C469.968,473.419,468.023,468.607,466.357,464.509z"/>
		</g>
		<g>
			<path style="fill:#BB583B;" d="M368.375,441c0,0-2.375,12.125-6.375,15.125c-3.78,2.835-14.75,7-14.75,7s-4.75,2.5-3.625,6.75
				h41.125c0,0,0.375-8.375,0-13.625s1-13.75,1-13.75L368.375,441z"/>
			<path style="fill:#DBA14F;" d="M384.791,456.928c-3.319,3.129-9.308,2.655-12.666-1.49c-2.553-3.151-5.202-4.084-6.789-4.349
				c-0.927,2.152-2.046,4.07-3.336,5.037c-3.78,2.835-14.75,7-14.75,7s-4.75,2.5-3.625,6.75h41.125
				C384.75,469.875,385.093,462.189,384.791,456.928z"/>
		</g>
		<path style="fill:#31100B;" d="M426.167,134.083c0,0-5.417-6.167,0-12.667c5.417-6.5,12.583-0.75,13.833,3.167
			c0,0,10.167,0.167,12.417,8.083c2.25,7.917-4.85,15.74-7.842,17.12c0,0,13.675,2.297,16.675,12.797S457.333,179,449.5,178.5
			c-7.833-0.5-14.667-9.333-15.917-15L426.167,134.083z"/>
		<g>
			<path style="fill:#5B75C9;" d="M400.125,249.5c0,0-8.125,24.5-14.792,63.5c-6.667,39-22,128.333-22,128.333S375,448.831,387,445
				l40.333-116.667l13,117.165c0,0,14.667,7.498,26,0c0,0,2.333-74.498,5.239-126.165c2.349-41.768-12.697-62.208-12.697-62.208
				L400.125,249.5z"/>
			<path style="fill:#31100B;" d="M464.759,268.837c-3.029-7.831-5.884-11.712-5.884-11.712l-21.05-2.732
				C441.834,255.647,454.232,260.007,464.759,268.837z"/>
			<path style="fill:none;stroke:#31100B;stroke-width:0.5;stroke-linecap:round;stroke-linejoin:round;stroke-miterlimit:10;" d="
				M427.333,328.333l-3.667-21c0,0-12.578-23.402-9.622-54.201"/>
			<path style="fill:none;stroke:#31100B;stroke-width:0.5;stroke-linecap:round;stroke-linejoin:round;stroke-miterlimit:10;" d="
				M423.667,307.333c0,0-13.5-3.833-21-9.5"/>
			<path style="fill:none;stroke:#31100B;stroke-width:0.5;stroke-linecap:round;stroke-linejoin:round;stroke-miterlimit:10;" d="
				M448.833,265.833c0,0,1.167,13.667,10.667,20.5"/>
			<path style="fill:none;stroke:#31100B;stroke-width:0.5;stroke-linecap:round;stroke-linejoin:round;stroke-miterlimit:10;" d="
				M410.149,252.242c0,0-1.518,11.425,0,19.758l4.067,1.828"/>
		</g>
		<path style="fill:#FEFFFF;" d="M470.932,188.25c-4-11.625-24.516-19.769-24.516-19.769l-16.292-2.981c0,0-10.992-1.99-18.25,0
			C401,168.481,388.25,193.333,365.75,214l6.75,21.75c15.25-3.25,27.875-17.625,27.875-17.625l2.875,3.5l-3.125,27.875
			c31.25,9.625,58.75,7.625,58.75,7.625S474.932,199.875,470.932,188.25z"/>
		<g>
			<path style="fill:#BB583B;" d="M432.083,126.75c0,0-6,3.167-9,11.167c0,0-6.833,0.667-7.167,7.167
				c-0.333,6.5,5.667,10.167,13,10.833l-0.75,9.583c0,0-11.156,12.456-1.583,16.583c9.083,3.917,18.667-7.269,19.833-13.602
				l-2.083-21.148c0,0-6.333-1.917-3.917-11.833C440.417,135.5,433.833,132.583,432.083,126.75z"/>
			<path style="fill:#F2E5DC;" d="M425,145.75h3.167c0,0-0.083,2.627-1.583,2.647S425,145.75,425,145.75z"/>
			<path style="fill:none;stroke:#31100B;stroke-width:0.5;stroke-linecap:round;stroke-linejoin:round;stroke-miterlimit:10;" d="
				M430.333,137.042l-2.167,3.708c0,0-2.625-0.833-2.75,0.583c-0.125,1.417,1.458,1.792,1.458,1.792"/>
			<path style="fill:none;stroke:#31100B;stroke-width:0.5;stroke-linecap:round;stroke-linejoin:round;stroke-miterlimit:10;" d="
				M432.625,139.75c0,0,1.844-0.609,2.891,1.219"/>
			<path style="fill:none;stroke:#31100B;stroke-width:0.5;stroke-linecap:round;stroke-linejoin:round;stroke-miterlimit:10;" d="
				M425.219,136.625c0,0,1.75-0.797,2.653,1.034"/>
			
				<line style="fill:none;stroke:#31100B;stroke-width:0.5;stroke-linecap:round;stroke-linejoin:round;stroke-miterlimit:10;" x1="428.167" y1="165.5" x2="428.167" y2="170.833"/>
			<g>
				<path style="fill:#BB583B;" d="M450.12,147.356c0.939,2.375-0.364,5.117-2.91,6.124c-2.547,1.007-5.372-0.103-6.312-2.478
					c-0.939-2.375,0.364-5.117,2.91-6.124C446.355,143.872,449.181,144.981,450.12,147.356z"/>
				<path style="fill:none;stroke:#31100B;stroke-width:0.5;stroke-linecap:round;stroke-linejoin:round;stroke-miterlimit:10;" d="
					M444.974,153.843c-0.931-0.055-1.815-0.365-2.542-0.886"/>
				
					<line style="fill:none;stroke:#31100B;stroke-width:0.5;stroke-linecap:round;stroke-linejoin:round;stroke-miterlimit:10;" x1="443.221" y1="149.595" x2="447.594" y2="147.198"/>
				<path style="fill:none;stroke:#31100B;stroke-width:0.5;stroke-linecap:round;stroke-linejoin:round;stroke-miterlimit:10;" d="
					M445.687,148.243c0,0,1.451,1.846-0.345,3.087"/>
			</g>
			<path style="fill:#31100B;" d="M428.917,155.917c0,0,4.521,0.333,7.396-0.417c0,0-3.817,4.307-7.784,5.372L428.917,155.917z"/>
		</g>
		<path style="fill:none;stroke:#31100B;stroke-width:0.5;stroke-linecap:round;stroke-linejoin:round;stroke-miterlimit:10;" d="
			M403.25,221.625c0,0-7.75-5.667-1.25-17.458"/>
		<g>
			<path style="fill:#BB583B;" d="M421,204.333c0,0,1.583-17.25,0-19.833c-1.583-2.583-10.917-19.667-12.75-19.167
				c-1.833,0.5,1.833,9.833,4.333,14c0,0-5.095-0.327-6.615,0.417c-1.469,0.719-2.135,2.145-2.135,2.145s-3.667-0.073-5.083,2.933
				c0,0-4.417-0.745-4.667,0.422s5.167,3.917,11.417,4.75c0,0-0.083,8.833,5.583,14.333c0,0,2.417,44.833,24.083,55.667
				c0,0,4.34,1.066,6.503-4.05c2.164-5.117,1.33-21.95-2.336-27.617C435.667,222.667,421,204.333,421,204.333z"/>
			<path style="fill:none;stroke:#31100B;stroke-width:0.5;stroke-linecap:round;stroke-linejoin:round;stroke-miterlimit:10;" d="
				M411.083,204.333c0,0,0.833,0.917,2.167,0.667"/>
			
				<line style="fill:none;stroke:#31100B;stroke-width:0.5;stroke-linecap:round;stroke-linejoin:round;stroke-miterlimit:10;" x1="398.75" y1="184.828" x2="410.25" y2="186.25"/>
			
				<line style="fill:none;stroke:#31100B;stroke-width:0.5;stroke-linecap:round;stroke-linejoin:round;stroke-miterlimit:10;" x1="403.833" y1="181.895" x2="413.25" y2="182.583"/>
			
				<line style="fill:none;stroke:#31100B;stroke-width:0.5;stroke-linecap:round;stroke-linejoin:round;stroke-miterlimit:10;" x1="412.583" y1="179.333" x2="415.903" y2="179.75"/>
			
				<line style="fill:none;stroke:#31100B;stroke-width:0.5;stroke-linecap:round;stroke-linejoin:round;stroke-miterlimit:10;" x1="435.338" y1="222.747" x2="450" y2="192.333"/>
			<path style="fill:none;stroke:#31100B;stroke-width:0.5;stroke-linecap:round;stroke-linejoin:round;stroke-miterlimit:10;" d="
				M440.493,257.956c0,0,13.757-14.081,20.132-28.706"/>
		</g>
		<g>
			<path style="fill:#BB583B;" d="M327.75,225.264c-1.012-1-2.74-2.191-5.417-2.514c-4.833-0.583-8.25,0.75-15.667-1.583
				c-7.417-2.333-1.917,5.25,5.75,6c0,0-17.583,7.25-17.917,11c0,0-0.667,1.583,1,1.417c0,0-2.083,1.167-1.917,2.25
				c0.167,1.083,1,0.917,1,0.917s-1.667,2.833,4.333,1.917c0,0-1.167,2.417,2.75,1.333c3.917-1.083,9.333-4,13.167-4.083
				c3.126-0.068,9.299-1.024,12.917-3.136V239c0,0,29.5,0,44.75-3.25c0.797-0.17,1.585-0.377,2.367-0.604
				c-1.351-14.7-9.117-21.146-9.117-21.146l-38,11.25V225.264z"/>
			<path style="fill:#31100B;" d="M371.036,236.044c0.501-0.095,0.989-0.193,1.464-0.294c0.797-0.17,1.585-0.377,2.367-0.604
				c-0.393-4.282-1.338-7.844-2.47-10.77C372.813,229.275,371.889,233.419,371.036,236.044z"/>
			<path style="fill:none;stroke:#31100B;stroke-width:0.5;stroke-linecap:round;stroke-linejoin:round;stroke-miterlimit:10;" d="
				M327.75,225.25c0,0,1.75,2,1.75,4.313"/>
			<path style="fill:none;stroke:#31100B;stroke-width:0.5;stroke-linecap:round;stroke-linejoin:round;stroke-miterlimit:10;" d="
				M298.917,244.667c0,0,5.458-3.667,12.021-6.354c0,0-1.969-6.283-1.5-8.173"/>
			<path style="fill:none;stroke:#31100B;stroke-width:0.5;stroke-linecap:round;stroke-linejoin:round;stroke-miterlimit:10;" d="
				M294.583,242.75c0,0,9.167-5.813,15.417-7.375"/>
			<path style="fill:none;stroke:#31100B;stroke-width:0.5;stroke-linecap:round;stroke-linejoin:round;stroke-miterlimit:10;" d="
				M295.5,239.583c0,0,8.688-5.708,13.938-7.021"/>
			<path style="fill:none;stroke:#31100B;stroke-width:0.5;stroke-linecap:round;stroke-linejoin:round;stroke-miterlimit:10;" d="
				M312.417,227.167c0.521-0.104,3.583-1.042,3.583-1.042"/>
			<path style="fill:none;stroke:#31100B;stroke-width:0.5;stroke-linecap:round;stroke-linejoin:round;stroke-miterlimit:10;" d="
				M313.375,236.938c0,0,4.625-6.375,11-4.063"/>
		</g>
	</g>
	<g>
		<g>
			<path style="fill:#31100B;" d="M544.667,445c0,0-1.833,10.667-11.167,14c-9.333,3.333-16.333,6.667-14.167,11H563
				c0,0,1.5-7.333,0-13.667L563.667,446L544.667,445z"/>
			
				<line style="fill:none;stroke:#F2E5DC;stroke-width:0.5;stroke-linecap:round;stroke-linejoin:round;stroke-miterlimit:10;" x1="539.667" y1="454.904" x2="546" y2="459.75"/>
			
				<line style="fill:none;stroke:#F2E5DC;stroke-width:0.5;stroke-linecap:round;stroke-linejoin:round;stroke-miterlimit:10;" x1="533.5" y1="459" x2="539.667" y2="463.75"/>
		</g>
		<g>
			<path style="fill:#31100B;" d="M628.053,440.05c0,0,0.409,10.815-8.035,16.004c-8.444,5.189-14.605,9.896-11.59,13.688
				l43.947-9.367c0,0-1.268-7.135-4.043-13.022l-2.578-10.076L628.053,440.05z"/>
			
				<line style="fill:none;stroke:#F2E5DC;stroke-width:0.5;stroke-linecap:round;stroke-linejoin:round;stroke-miterlimit:10;" x1="625.206" y1="450.773" x2="632.404" y2="454.207"/>
			
				<line style="fill:none;stroke:#F2E5DC;stroke-width:0.5;stroke-linecap:round;stroke-linejoin:round;stroke-miterlimit:10;" x1="620.018" y1="456.054" x2="627.033" y2="459.428"/>
		</g>
		<g>
			<path style="fill:#DBA14F;" d="M643,240.75c0,0,1.597,64.64-8.201,110.051c-0.693,3.211-0.718,6.524-0.046,9.739l16.247,77.8
				c0,0-11.75,6.411-27,6.661l-24.495-70.99c-1.659-4.807-2.505-9.856-2.505-14.941V302.5L643,240.75z"/>
			<path style="fill:#31100B;" d="M641.696,296.071C643.624,266.026,643,240.75,643,240.75l-46,61.75v35.833
				C597,338.333,621.362,326.876,641.696,296.071z"/>
			<path style="fill:#DBA14F;" d="M643,240.75c0,0,4.333,32.917-8.333,58.25C622,324.333,597,354.333,597,354.333l-30.333,96.333
				c0,0-16.667,3.333-29.591-4.333c0,0,17.326-88.343,20.591-100.622c4.217-15.859,21.925-82.461,21.925-82.461L643,240.75z"/>
			<path style="fill:none;stroke:#31100B;stroke-width:0.5;stroke-linecap:round;stroke-linejoin:round;stroke-miterlimit:10;" d="
				M642.87,269.436c-1.094,9.497-3.453,20.064-8.203,29.564C622,324.333,597,354.333,597,354.333"/>
			<path style="fill:#31100B;" d="M643.668,250.732c-0.159-6.109-0.668-9.982-0.668-9.982l-27.419,9.729
				C615.585,250.479,630.429,248.796,643.668,250.732z"/>
			<path style="fill:none;stroke:#31100B;stroke-width:0.5;stroke-linecap:round;stroke-linejoin:round;stroke-miterlimit:10;" d="
				M539.667,433.186c0,0,14.775,6.19,30.929,5.002"/>
			<path style="fill:none;stroke:#31100B;stroke-width:0.5;stroke-linecap:round;stroke-linejoin:round;stroke-miterlimit:10;" d="
				M619.433,431.764c0,0,15.817-1.817,28.567-7.791"/>
			<path style="fill:none;stroke:#31100B;stroke-width:0.5;stroke-linecap:round;stroke-linejoin:round;stroke-miterlimit:10;" d="
				M609.333,263.25c0,0-2.333,17.25,7.667,23.333"/>
		</g>
		<g>
			<path style="fill:#5B75C9;" d="M624.25,166.75c-11.25-20.057-37.75-21.667-37.75-21.667l-19.167,9.583
				c0,0-10.708,5.583-16.208,13.708s-23.971,38.5-23.971,38.5l-35.375-16.5c-0.211-2.544-1.072-8.315-4.596-10.75
				c-4.583-3.167-6.417-6.25-6.5-9.667c-0.083-3.417-4.25-0.5-4,4.583l0.833,5.083c0,0-20.917,1.833-22.417,6.25
				c-1.5,4.417,13.25,0.417,13.25,0.417s-3,3.167,0,5.333c0,0,0.083,3.75,2.583,4.333c0,0,0.667,3.25,4,3.917
				c3.333,0.667,5.75,0,5.75,0s1.481,0.564,3.37,0.654l37.476,33.721c0,0,9.625,6.75,19,0s21.596-26.125,21.596-26.125
				l17.467,55.125c0,0,46.408-11.5,63.408-22.5C643,240.75,633.898,183.952,624.25,166.75z"/>
			
				<line style="fill:none;stroke:#31100B;stroke-width:0.5;stroke-linecap:round;stroke-linejoin:round;stroke-miterlimit:10;" x1="562.125" y1="208.125" x2="557.75" y2="191.5"/>
			
				<line style="fill:none;stroke:#31100B;stroke-width:0.5;stroke-linecap:round;stroke-linejoin:round;stroke-miterlimit:10;" x1="598.5" y1="214.833" x2="594.75" y2="181.25"/>
			
				<line style="fill:none;stroke:#31100B;stroke-width:0.5;stroke-linecap:round;stroke-linejoin:round;stroke-miterlimit:10;" x1="628.229" y1="214.833" x2="626.75" y2="195.25"/>
			<path style="fill:none;stroke:#31100B;stroke-width:0.5;stroke-linecap:round;stroke-linejoin:round;stroke-miterlimit:10;" d="
				M564.485,156.333c0,0-2.414,12.774,6.974,13.833c13.292,1.5,17.722-9.667,18.553-24.653"/>
		</g>
		<g>
			<path style="fill:#F8918A;" d="M567.333,154.667l-10.917-16.583l12.083-10.917l18,17.917c0,0-1.5,21.667-11.917,21.667
				C564.333,166.75,567.333,154.667,567.333,154.667z"/>
			<path style="fill:#BB583B;" d="M565.375,129.99l-8.958,8.093l5.667,8.609C565.375,142.25,565.375,129.99,565.375,129.99z"/>
			<path style="fill:#31100B;" d="M553.167,115.333c0,0-2.833,3.25-4.083,6.75c0,0-3.333-0.833-3.417,0.667
				c-0.083,1.5,0.833,2.167,0.833,2.167s-5.167,1.417-5.917,6.417s6.25,13.917,18.5,11.25c0,0,5.291-1.735,7.333-7.417
				c2.667-7.417,7.902-6.644,7.902-6.644s5.515-6.189,5.265-11.522s-3.083-7.583-7.833-9.667c-4.75-2.083-10.167-9.417-14-8.25
				c-3.833,1.167-2.75,3.417-2.75,3.417s-4-2.667-6.333-0.917c-2.333,1.75-1.417,6,1.5,7.917c0,0-3.12,0.215-3,2.5
				C547.333,115.167,553.167,115.333,553.167,115.333z"/>
			<path style="fill:#F8918A;" d="M561.583,119.167c0,0-2.833,1.5-6.25,0c-3.417-1.5-2.167-3.833-2.167-3.833
				s-2.833,3.25-4.083,6.75c0,0-3.333-0.833-3.417,0.667c-0.083,1.5,0.833,2.167,0.833,2.167c4.25-0.25,9.75,6.833,13,6.75
				c3.25-0.083,5.75-6.5,5.75-6.5C561.667,123.5,561.583,119.167,561.583,119.167z"/>
			<path style="fill:#F8918A;" d="M578.166,129.967c0.468,2.511-1.336,4.953-4.028,5.455c-2.692,0.501-5.254-1.128-5.721-3.639
				c-0.468-2.511,1.336-4.953,4.028-5.455C575.137,125.827,577.698,127.456,578.166,129.967z"/>
			<path style="fill:none;stroke:#31100B;stroke-width:0.5;stroke-linecap:round;stroke-linejoin:round;stroke-miterlimit:10;" d="
				M576.036,134.669c-0.556,0.361-1.197,0.623-1.898,0.753c-1.192,0.222-2.359,0.026-3.329-0.479"/>
			<g>
				
					<line style="fill:none;stroke:#31100B;stroke-width:0.5;stroke-linecap:round;stroke-linejoin:round;stroke-miterlimit:10;" x1="570.966" y1="130.845" x2="575.716" y2="129.329"/>
				<path style="fill:none;stroke:#31100B;stroke-width:0.5;stroke-linecap:round;stroke-linejoin:round;stroke-miterlimit:10;" d="
					M573.645,129.99c0,0,1.071,2.089-0.929,2.964"/>
			</g>
			<path style="fill:#31100B;" d="M553.129,122.18c-0.181,0.493-0.59,0.797-0.914,0.678c-0.324-0.119-0.44-0.615-0.26-1.108
				c0.181-0.493,0.59-0.797,0.914-0.678C553.193,121.191,553.309,121.687,553.129,122.18z"/>
			<path style="fill:#F2E5DC;" d="M549.25,130.845l1.917-0.345c0,0,0.083,2.5-0.958,2.75
				C549.167,133.5,549.25,130.845,549.25,130.845z"/>
			
				<line style="fill:none;stroke:#31100B;stroke-width:0.5;stroke-linecap:round;stroke-linejoin:round;stroke-miterlimit:10;" x1="567.333" y1="154.667" x2="569.583" y2="158"/>
		</g>
		<g>
			<path style="fill:#F8918A;" d="M531.459,199.822L531.459,199.822c-2.566,4.192-4.305,7.053-4.305,7.053l-35.375-16.5
				c-0.211-2.544-1.072-8.315-4.596-10.75c-4.583-3.167-6.417-6.25-6.5-9.667c-0.083-3.417-4.25-0.5-4,4.583l0.833,5.083
				c0,0-20.917,1.833-22.417,6.25c-1.5,4.417,13.25,0.417,13.25,0.417s-3,3.167,0,5.333c0,0,0.083,3.75,2.583,4.333
				c0,0,0.667,3.25,4,3.917c3.333,0.667,7.231,0.564,9.12,0.654l37.476,33.721c0,0,9.625,6.75,19,0
				c3.873-2.789,8.231-7.732,12.013-12.574C545.661,209.75,531.459,199.822,531.459,199.822z"/>
			<path style="fill:#31100B;" d="M548.083,227.065c1.53-1.731,3.035-3.567,4.458-5.389c-2.232-3.869-5.235-7.525-8.273-10.702
				C544.308,211.067,548.005,219.698,548.083,227.065z"/>
			
				<line style="fill:none;stroke:#31100B;stroke-width:0.5;stroke-linecap:round;stroke-linejoin:round;stroke-miterlimit:10;" x1="527.154" y1="206.875" x2="532" y2="209.375"/>
			<path style="fill:none;stroke:#31100B;stroke-width:0.5;stroke-linecap:round;stroke-linejoin:round;stroke-miterlimit:10;" d="
				M468.349,186.292c0,0,8.823-3.28,11.318-2.042c2.266,1.125-0.833,3-0.833,3s4.339-0.208,2.75,2
				c-1.173,1.63-2.583,2.333-2.583,2.333s3.5,0.26,0.75,3c-2.434,2.425-5.125,3.323-5.125,3.323"/>
			<path style="fill:none;stroke:#31100B;stroke-width:0.5;stroke-linecap:round;stroke-linejoin:round;stroke-miterlimit:10;" d="
				M468.349,191.625c0,0,4.901-2.708,10.484-4.375"/>
			<path style="fill:none;stroke:#31100B;stroke-width:0.5;stroke-linecap:round;stroke-linejoin:round;stroke-miterlimit:10;" d="
				M470.932,195.959c0,0,4.155-2.021,8.068-4.375"/>
			<path style="fill:none;stroke:#31100B;stroke-width:0.5;stroke-linecap:round;stroke-linejoin:round;stroke-miterlimit:10;" d="
				M478.147,195.959c0,0,0.397,1.541,0,2.541"/>
			
				<line style="fill:none;stroke:#31100B;stroke-width:0.5;stroke-linecap:round;stroke-linejoin:round;stroke-miterlimit:10;" x1="491.779" y1="190.375" x2="491.779" y2="193.333"/>
			<path style="fill:none;stroke:#31100B;stroke-width:0.5;stroke-linecap:round;stroke-linejoin:round;stroke-miterlimit:10;" d="
				M481.014,189.954c0,0,0.611,3.078,4.402,3.817"/>
			
				<line style="fill:none;stroke:#31100B;stroke-width:0.5;stroke-linecap:round;stroke-linejoin:round;stroke-miterlimit:10;" x1="477.969" y1="181.413" x2="478.623" y2="183.997"/>
		</g>
		<g>
			<path style="fill:#F8918A;" d="M598.5,214.833h29.729c0,0,1.771,17.917-3.479,22.917s-57.417,30-57.417,30
				S559.083,282,556.167,283l-3.237,1.294c0,0-1.096,0.956-2.679,1.456c-1.583,0.5-6.333,0.833-6.333,0.833s-3.5,2.833-4.75,2.25
				c-1.25-0.583,0.5-4.083,0.5-4.083s-2.75,1.583-2.583-2c0.167-3.583,4.667-7.083,4.667-7.083s6-5,7.083-10.25
				c0,0-9.292,1.125-11.333-3.417c0,0-1.083-3.75,2.667-2.583c3.75,1.167,7.5-0.75,9.75-2.083C552.167,256,560,255.75,560,255.75
				L599.083,223L598.5,214.833z"/>
			<path style="fill:#31100B;" d="M628.229,214.833h-15.563c0,0,9.793,1.997,15.807,4.124
				C628.393,216.502,628.229,214.833,628.229,214.833z"/>
			<path style="fill:none;stroke:#31100B;stroke-width:0.5;stroke-linecap:round;stroke-linejoin:round;stroke-miterlimit:10;" d="
				M539.667,284.75c0,0,7.95-6.125,9.329-8.25c1.379-2.125,3.546-6.25,3.546-6.25"/>
			<path style="fill:none;stroke:#31100B;stroke-width:0.5;stroke-linecap:round;stroke-linejoin:round;stroke-miterlimit:10;" d="
				M543.917,286.583c0,0,7.041-4.458,8.625-6.958s3.583-6.5,3.583-6.5"/>
			<path style="fill:none;stroke:#31100B;stroke-width:0.5;stroke-linecap:round;stroke-linejoin:round;stroke-miterlimit:10;" d="
				M552.929,284.294c0,0,4.446-5.044,5.696-8.794"/>
		</g>
	</g>
	<g>
		<g>
			<path style="fill:#FEFFFF;" d="M184.875,441.125l-1,12.25c0,0-2,10.5-1.125,16.75h47.875c0,0,1.375-4.5-4.125-6.25
				s-16.569-4.875-19.847-12.5l-1.278-10.25H184.875z"/>
			<path style="fill:#31100B;" d="M226.5,463.875c-5.5-1.75-16.569-4.875-19.847-12.5l-0.018-0.148
				c-2.66,0.379-5.355,2.586-10.51,5.023c-4.884,2.309-9.943-0.046-12.472-1.606c-0.495,2.979-1.593,10.55-0.903,15.481h47.875
				C230.625,470.125,232,465.625,226.5,463.875z"/>
		</g>
		<g>
			<path style="fill:#FEFFFF;" d="M117.25,441.125c0,0-1,10.125-4.25,13S102.375,462,102.375,462s-5.625,3.125-2.75,8.125h36.75
				c0,0,1-13.5,0.875-17.875s0.75-11.125,0.75-11.125H117.25z"/>
			<path style="fill:#31100B;" d="M137.171,456.764c-3.708,0.749-9.094-1.213-13.296-4.014c-3.217-2.145-7.128-1.1-9.888,0.188
				c-0.304,0.466-0.631,0.872-0.987,1.187C109.75,457,102.375,462,102.375,462s-5.625,3.125-2.75,8.125h36.75
				C136.375,470.125,136.946,462.419,137.171,456.764z"/>
		</g>
		<g>
			<path style="fill:#5B75C9;" d="M120.5,255.5c0,0-3.833,28.167-5.5,83.833C113.333,395,112.333,443,112.333,443
				s17.333,3.333,29.333,0l23.667-135.667l10.941,47.83c0.482,2.109,0.764,4.259,0.841,6.421L180,442.667
				c0,0,19.667,4.963,28.333,1.815l7.117-102.698c0.144-2.074,0.092-4.156-0.153-6.22L205.5,253.25L120.5,255.5z"/>
			<path style="fill:#31100B;" d="M120.5,255.5c0,0-0.536,3.94-1.294,11.778c0-0.001,7.803-7.04,21.509-12.314L120.5,255.5z"/>
			<path style="fill:none;stroke:#31100B;stroke-width:0.5;stroke-linecap:round;stroke-linejoin:round;stroke-miterlimit:10;" d="
				M165.333,307.333l2.036-14.833c0,0,15.214-18.667,15.005-39.25"/>
			<path style="fill:none;stroke:#31100B;stroke-width:0.5;stroke-linecap:round;stroke-linejoin:round;stroke-miterlimit:10;" d="
				M174.793,280.89h2.854c1.311,0,2.493-0.776,3.016-1.979c1.85-4.257,5.813-14.751,5.171-25.244"/>
			<path style="fill:none;stroke:#31100B;stroke-width:0.5;stroke-linecap:round;stroke-linejoin:round;stroke-miterlimit:10;" d="
				M167.37,292.5c0,0,10.635-1,15.007-2.75"/>
			<path style="fill:none;stroke:#31100B;stroke-width:0.5;stroke-linecap:round;stroke-linejoin:round;stroke-miterlimit:10;" d="
				M121.75,279c0,0,11-12.5,13.25-20.25"/>
			<path style="fill:none;stroke:#31100B;stroke-width:0.5;stroke-linecap:round;stroke-linejoin:round;stroke-miterlimit:10;" d="
				M112.333,429.667c0,0,19.167,2.333,31.25,0"/>
			<path style="fill:none;stroke:#31100B;stroke-width:0.5;stroke-linecap:round;stroke-linejoin:round;stroke-miterlimit:10;" d="
				M179.556,430.185c0,0,17.687,3.222,29.732,0.518"/>
		</g>
		<g>
			<path style="fill:#DBA14F;" d="M170.845,131.75c0,0-13.127-6.5-24.236-0.75l-3.026,4.375L119.25,146c0,0-10.625,5.25-12.5,16.125
				s0,42.875,4.75,70.375c0,0,2.25,9.5,8.75,10l0.25,13c0,0,27.187,1.28,51.344,0.641C196,255.501,205.5,253.25,205.5,253.25
				l-1.456-28.502c0,0,3.456,11.919,13.706,14.835s53.5-10.333,53.5-10.333v-24l-42.906-0.079L208,157c0,0-5.5-14-14.25-16.5
				s-20.25-5.25-20.25-5.25L170.845,131.75z"/>
			<path style="fill:#FEFFFF;" d="M191.156,255.119c-2.337-26.944-9.279-99.717-17.656-119.869l-1.655-3.5
				c0,0-15.127-6.5-26.236-0.75l-2.026,4.375c0,0,17.417,40.125,20.198,70.875c1.461,16.154,2.829,37.915,3.375,49.991
				c1.57-0.026,3.135-0.059,4.688-0.1C179.821,255.93,186.19,255.542,191.156,255.119z"/>
			<path style="fill:#31100B;" d="M145.609,131c0,0,10.391,6.604,15.057,8.083l4.667-0.25l2.5-2.667c0,0,2.108-1.667,4.012-4.417
				C171.845,131.75,156.719,125.25,145.609,131z"/>
			<path style="fill:none;stroke:#31100B;stroke-width:0.5;stroke-linecap:round;stroke-linejoin:round;stroke-miterlimit:10;" d="
				M145.609,137.837c0,0,3.279,2.875,10.404,7.25l4.653-6.004"/>
			<path style="fill:none;stroke:#31100B;stroke-width:0.5;stroke-linecap:round;stroke-linejoin:round;stroke-miterlimit:10;" d="
				M165.333,138.833l4.121,5.482c0,0,3.614-3.266,5.017-6.478"/>
			<g>
				<path style="fill:#5B75C9;" d="M158.727,145.75c0,0,3.689-3.076,9.106-0.663l-0.464,7.288l15.005,68.875l-12.293,0.94
					l-7.123-69.065L158.727,145.75z"/>
				<path style="fill:none;stroke:#31100B;stroke-width:0.5;stroke-linecap:round;stroke-linejoin:round;stroke-miterlimit:10;" d="
					M162.959,153.125c0,0,1.781-2,4.411-0.75"/>
			</g>
			<path style="fill:#DBA14F;" d="M120.25,242.5c0,0,41.312,5.5,70.906-1.25v-24l-47.572-4.75L120.25,242.5z"/>
			
				<polyline style="fill:none;stroke:#31100B;stroke-width:0.5;stroke-linecap:round;stroke-linejoin:round;stroke-miterlimit:10;" points="
				164.49,214.587 143.583,212.5 137.167,178.333 			"/>
			<path style="fill:none;stroke:#31100B;stroke-width:0.5;stroke-linecap:round;stroke-linejoin:round;stroke-miterlimit:10;" d="
				M143.583,212.5c0,0-5.25,1.167-8.583,5.5"/>
			<path style="fill:none;stroke:#31100B;stroke-width:0.5;stroke-linecap:round;stroke-linejoin:round;stroke-miterlimit:10;" d="
				M120.25,242.5c0,0,20.813,2.859,46.282,1.846"/>
			<path style="fill:none;stroke:#31100B;stroke-width:0.5;stroke-linecap:round;stroke-linejoin:round;stroke-miterlimit:10;" d="
				M204.044,224.748c0,0-2.71-38.748-5.044-49.415"/>
			<path style="fill:#31100B;" d="M193.87,229.25c0,6.627-1.215,12-2.714,12c-1.499,0-2.714-5.373-2.714-12s1.215-12,2.714-12
				C192.655,217.25,193.87,222.623,193.87,229.25z"/>
			<ellipse style="fill:#31100B;" cx="271.25" cy="217.25" rx="2.714" ry="12"/>
			
				<line style="fill:none;stroke:#31100B;stroke-width:0.5;stroke-linecap:round;stroke-linejoin:round;stroke-miterlimit:10;" x1="228.344" y1="205.171" x2="220.667" y2="205.171"/>
			<path style="fill:none;stroke:#31100B;stroke-width:0.5;stroke-linecap:round;stroke-linejoin:round;stroke-miterlimit:10;" d="
				M139.292,141.462l-2.686,3.863c-1.583,2.275-1.318,5.355,0.63,7.327l6.89,6.974l-3.506,6.584
				c-0.997,1.872-0.882,4.142,0.298,5.904l22.864,34.137"/>
			<path style="fill:none;stroke:#31100B;stroke-width:0.5;stroke-linecap:round;stroke-linejoin:round;stroke-miterlimit:10;" d="
				M185.901,203.291l8.756-33.22c0.522-1.979-0.047-4.086-1.495-5.533l-5.788-5.788l2.702-5.479
				c1.078-2.185,0.661-4.813-1.039-6.558l-6.663-6.838"/>
		</g>
		<g>
			<path style="fill:#31100B;" d="M149.637,115.328c-0.304,0.006-7.887-6.578-5.637-15.578c0,0,1.358-5.583,5.637-4.917
				c0,0-0.471-6,4.529-6.667c5-0.667,20.5-0.083,21.333,7.083c0.833,7.167-5.083,8.333-5.083,8.333L149.637,115.328z"/>
			<path style="fill:#F8918A;" d="M172.583,100.833L174,111c0,0,5.167,4.417,1.25,11.75c0,0-2.833,4.083-7.417,3.333v10.083
				l-2.5,2.667l-1.75,5.167l-2.917-4.917c0,0-4.76-1.615-11.466-5.881L150,112.083c0,0,6-1.167,4.75-11.25
				C154.75,100.833,168.917,105.083,172.583,100.833z"/>
			<path style="fill:#31100B;" d="M167.833,126.083c0,0-7.083-0.25-11.333-4.417c0,0,2.083,6.167,11.333,8.083V126.083z"/>
			<path style="fill:#F8918A;" d="M142.87,111.1c-1.067,2.321,0.084,5.13,2.572,6.274c2.488,1.144,5.37,0.19,6.437-2.13
				c1.067-2.321-0.084-5.129-2.572-6.274C146.819,107.825,143.937,108.779,142.87,111.1z"/>
			<g>
				
					<line style="fill:none;stroke:#31100B;stroke-width:0.5;stroke-linecap:round;stroke-linejoin:round;stroke-miterlimit:10;" x1="149.637" y1="113.711" x2="145.402" y2="111.079"/>
				<path style="fill:none;stroke:#31100B;stroke-width:0.5;stroke-linecap:round;stroke-linejoin:round;stroke-miterlimit:10;" d="
					M147.248,112.227c0,0-1.549,1.764,0.176,3.101"/>
			</g>
			
				<line style="fill:none;stroke:#31100B;stroke-width:0.5;stroke-linecap:round;stroke-linejoin:round;stroke-miterlimit:10;" x1="167.531" y1="108.792" x2="168.844" y2="113.275"/>
			<path style="fill:none;stroke:#31100B;stroke-width:0.5;stroke-linecap:round;stroke-linejoin:round;stroke-miterlimit:10;" d="
				M167.781,113.881c0,0,1.938-1.372,2.813-0.606c0.875,0.766-0.813,2.156-0.813,2.156"/>
			<path style="fill:none;stroke:#31100B;stroke-width:0.5;stroke-linecap:round;stroke-linejoin:round;stroke-miterlimit:10;" d="
				M164,117.563c0,0,2.062,1.5,3.594,0.938"/>
			<path style="fill:#31100B;" d="M171.844,109.521c0,0.525-0.28,0.951-0.625,0.951c-0.345,0-0.625-0.426-0.625-0.951
				c0-0.525,0.28-0.951,0.625-0.951C171.564,108.57,171.844,108.996,171.844,109.521z"/>
			<path style="fill:#31100B;" d="M163.781,109.417c0,0.525-0.28,0.951-0.625,0.951c-0.345,0-0.625-0.426-0.625-0.951
				c0-0.525,0.28-0.951,0.625-0.951C163.501,108.466,163.781,108.891,163.781,109.417z"/>
			<g>
				<path style="fill:none;stroke:#FEFFFF;stroke-width:0.5;stroke-linecap:round;stroke-linejoin:round;stroke-miterlimit:10;" d="
					M166.501,109.005c0,2.301-1.586,4.167-3.542,4.167c-1.956,0-3.542-1.866-3.542-4.167s1.586-4.167,3.542-4.167
					C164.915,104.838,166.501,106.703,166.501,109.005z"/>
				<path style="fill:none;stroke:#FEFFFF;stroke-width:0.5;stroke-linecap:round;stroke-linejoin:round;stroke-miterlimit:10;" d="
					M175.928,108.792c0,2.301-1.586,4.167-3.542,4.167c-1.956,0-3.542-1.865-3.542-4.167s1.586-4.167,3.542-4.167
					C174.342,104.625,175.928,106.491,175.928,108.792z"/>
				
					<line style="fill:none;stroke:#FEFFFF;stroke-width:0.5;stroke-linecap:round;stroke-linejoin:round;stroke-miterlimit:10;" x1="166.501" y1="109.005" x2="168.844" y2="109.005"/>
				
					<line style="fill:none;stroke:#FEFFFF;stroke-width:0.5;stroke-linecap:round;stroke-linejoin:round;stroke-miterlimit:10;" x1="159.416" y1="109.005" x2="150.743" y2="109.948"/>
			</g>
		</g>
		<path style="fill:#DBA14F;" d="M294.333,218.729c-2.163,0-3.917,1.754-3.917,3.917c0,1.518,0.873,2.82,2.135,3.47v1.208
			c-0.432,0-0.781,0.35-0.781,0.781c0,0.432,0.35,0.781,0.781,0.781v0.375c-0.432,0-0.781,0.35-0.781,0.781
			c0,0.432,0.35,0.781,0.781,0.781v0.365c-0.432,0-0.781,0.35-0.781,0.781c0,0.431,0.35,0.781,0.781,0.781v0.688l2.781,1.125
			l0.781-1.125v-7.322c1.263-0.65,2.135-1.952,2.135-3.47C298.25,220.483,296.496,218.729,294.333,218.729z M294.333,222.094
			c-0.552,0-1-0.448-1-1c0-0.552,0.448-1,1-1c0.552,0,1,0.448,1,1C295.333,221.646,294.886,222.094,294.333,222.094z"/>
		<g>
			<path style="fill:#F8918A;" d="M316.208,208.833c-2.625-0.167-7.542-1.667-7.542-1.667c6.417-0.5,7.333-3.583,3.333-3.619
				s-11.833-1.964-14.5-3.548c-2.667-1.583-5.167-0.667-5.167-0.667l-18.37,8.333l-4.449,0.359
				c-1.764,5.974-0.815,13.312-0.815,13.312l8.468-0.171c5.333,2.917,7.667,1.417,10.25,2c2.583,0.583,5.5,5.667,6.042,2.083
				c0.542-3.583-5.459-7.417-6.042-9.417c-0.583-2,2.333-5.417,4-6.167c1.667-0.75,6.083,2.02,6.083,2.02S296.917,214,296,218.5
				c-0.04,0.196-0.056,0.384-0.075,0.573c1.368,0.611,2.325,1.978,2.325,3.573c0,0.434-0.078,0.847-0.21,1.236
				c0.905,0.608,1.745,0.588,1.71-0.298c-0.083-2.083,1.25-5.5,2.5-7.333c1.25-1.833,1.083-5.167,1.083-5.167S307,212,312,212.167
				C317,212.333,318.833,209,316.208,208.833z"/>
			<path style="fill:none;stroke:#31100B;stroke-width:0.5;stroke-linecap:round;stroke-linejoin:round;stroke-miterlimit:10;" d="
				M303.333,211.083c0-1.521-5.083-6.271-5.083-6.271"/>
			<path style="fill:none;stroke:#31100B;stroke-width:0.5;stroke-linecap:round;stroke-linejoin:round;stroke-miterlimit:10;" d="
				M296.583,201.688c0,0,7.188,4.708,12.083,5.479"/>
		</g>
		<g>
			
				<rect x="215.689" y="194.74" transform="matrix(0.9085 0.4178 -0.4178 0.9085 113.5797 -77.7467)" style="fill:#5B75C9;" width="37.333" height="51.583"/>
			
				<rect x="212.587" y="197.328" transform="matrix(0.9368 0.35 -0.35 0.9368 92.7049 -66.8197)" style="fill:#FEFFFF;" width="37.333" height="51.583"/>
			
				<rect x="223.228" y="204.044" transform="matrix(0.9368 0.35 -0.35 0.9368 87.2418 -69.9818)" style="fill:#5B75C9;" width="28.083" height="4.75"/>
			
				<line style="fill:none;stroke:#5B75C9;stroke-width:0.5;stroke-linecap:round;stroke-linejoin:round;stroke-miterlimit:10;" x1="221.302" y1="209.038" x2="247.609" y2="218.866"/>
			
				<line style="fill:none;stroke:#5B75C9;stroke-width:0.5;stroke-linecap:round;stroke-linejoin:round;stroke-miterlimit:10;" x1="220.106" y1="212.239" x2="246.414" y2="222.067"/>
			
				<line style="fill:none;stroke:#5B75C9;stroke-width:0.5;stroke-linecap:round;stroke-linejoin:round;stroke-miterlimit:10;" x1="218.981" y1="215.251" x2="245.288" y2="225.079"/>
		</g>
		<g>
			<path style="fill:#F8918A;" d="M189.207,220.907c0,0,5.793-0.741,8.293-1.407s13.265-6.528,17.182-5.362l-1.958,5.439
				c0,0,11.692,6.172,18.026,8.089c6.333,1.917,5.833,3.75,4.75,4.333c-1.083,0.583-8.083-0.833-8.083-0.833s-1.917,1.5-3.5,1.75
				c0,0-1.583,2.25-4.083,2.333c0,0-0.414,0.917-3.25,1.75c-2.836,0.833-14.583-0.75-14.583-0.75s-13.007,0.296-13.077-0.181
				C188.853,235.592,187.496,226.565,189.207,220.907z"/>
			<path style="fill:none;stroke:#31100B;stroke-width:0.5;stroke-linecap:round;stroke-linejoin:round;stroke-miterlimit:10;" d="
				M227.417,231.167c0,0-9.917-2.771-14.417-3.479"/>
			
				<line style="fill:none;stroke:#31100B;stroke-width:0.5;stroke-linecap:round;stroke-linejoin:round;stroke-miterlimit:10;" x1="223.917" y1="232.917" x2="210.892" y2="231.375"/>
			
				<line style="fill:none;stroke:#31100B;stroke-width:0.5;stroke-linecap:round;stroke-linejoin:round;stroke-miterlimit:10;" x1="219.833" y1="235.25" x2="210.083" y2="234.25"/>
		</g>
	</g>
	<g>
		<polygon style="fill:#DBA14F;" points="317.74,142.3 237.55,142.3 237.55,76.081 277.794,54.581 317.74,76.081 		"/>
		<path style="fill:#FEFFFF;" d="M289.056,142.3h-22.823v-24.932c0-6.302,5.109-11.411,11.411-11.411l0,0
			c6.302,0,11.411,5.109,11.411,11.411V142.3z"/>
		
			<polygon style="fill:none;stroke:#31100B;stroke-width:0.5;stroke-linecap:round;stroke-linejoin:round;stroke-miterlimit:10;" points="
			327.19,80.825 277.789,54.236 229.341,80.117 226.514,74.825 277.8,47.427 330.034,75.542 		"/>
		
			<rect x="230.353" y="142.3" style="fill:none;stroke:#31100B;stroke-width:0.5;stroke-linecap:round;stroke-linejoin:round;stroke-miterlimit:10;" width="96.25" height="4.781"/>
		<rect x="271.728" y="79.581" style="fill:#FEFFFF;" width="13.5" height="13.5"/>
	</g>
	<g>
		<polygon style="fill:#F8918A;" points="374.336,44.19 382.731,39.015 388.296,47.157 398.07,45.845 399.842,55.546 
			409.304,58.322 406.977,67.905 414.493,74.29 408.469,82.099 412.738,90.989 404.059,95.672 404.343,105.529 394.51,106.277 
			390.759,115.398 381.472,112.082 374.336,118.889 367.2,112.082 357.913,115.398 354.162,106.277 344.329,105.529 344.613,95.672 
			335.934,90.989 340.203,82.099 334.179,74.29 341.695,67.905 339.368,58.322 348.83,55.546 350.602,45.845 360.376,47.157 
			365.941,39.015 		"/>
		
			<line style="fill:none;stroke:#31100B;stroke-width:0.5;stroke-linecap:round;stroke-linejoin:round;stroke-miterlimit:10;" x1="356.058" y1="90.175" x2="360.933" y2="63.515"/>
		<path style="fill:#FEFFFF;" d="M359.95,54.639c-7.437,6.526-8.176,17.845-1.65,25.282c5.002,5.701,12.816,7.45,19.543,5.024
			l7.054,8.039c-1.505,1.321-1.655,3.612-0.334,5.118c1.321,1.506,3.612,1.655,5.118,0.334c-1.505,1.321-1.655,3.612-0.334,5.118
			c1.321,1.505,3.612,1.655,5.118,0.334l0.06,0.069c-1.505,1.321-1.655,3.612-0.334,5.118c1.321,1.506,3.612,1.655,5.118,0.334
			l1.991,2.269l7.414,0.618l2.415-9.244L387.673,76.32c3.279-6.355,2.561-14.33-2.441-20.031
			C378.706,48.853,367.387,48.114,359.95,54.639z M369.436,64.942c-1.557,1.366-3.926,1.211-5.292-0.345
			c-1.366-1.557-1.211-3.926,0.345-5.292c1.557-1.366,3.926-1.211,5.292,0.345C371.147,61.206,370.992,63.576,369.436,64.942z"/>
		
			<line style="fill:none;stroke:#31100B;stroke-width:0.5;stroke-linecap:round;stroke-linejoin:round;stroke-miterlimit:10;" x1="408.714" y1="112.296" x2="381.837" y2="81.665"/>
		<path style="fill:#5B75C9;" d="M356.058,84.765l-15.375,6.75v39.083h30.75V91.515L356.058,84.765z M356.058,95.425
			c-1.45,0-2.625-1.175-2.625-2.625c0-1.45,1.175-2.625,2.625-2.625c1.45,0,2.625,1.175,2.625,2.625
			C358.683,94.25,357.508,95.425,356.058,95.425z"/>
		
			<line style="fill:none;stroke:#31100B;stroke-width:0.5;stroke-linecap:round;stroke-linejoin:round;stroke-miterlimit:10;" x1="356.058" y1="90.175" x2="366.962" y2="64.396"/>
	</g>
</g>
<g id="TEXT">
	<text transform="matrix(1 0 0 1 349.6459 120.5981)" style="fill:#FEFFFF; font-family:'Boogaloo-Regular'; font-size:25px;">$</text>
</g>
</svg>
